<svg xmlns="http://www.w3.org/2000/svg"><defs><symbol viewBox="0 0 200 300" id="main"><path stroke="currentColor" vector-effect="non-scaling-stroke" d="M 90.734 31.655 C 90.434 31.655 90.134 31.655 89.834 31.665 C 64.434 32.315 55.674 38.935 45.534 46.595 C 42.614 48.805 39.594 51.085 36.004 53.385 C 26.194 59.675 25.924 75.375 25.714 87.985 C 25.614 93.845 25.534 98.905 24.434 101.785 C 22.404 107.125 22.714 115.665 22.974 122.525 C 23.134 126.805 23.274 130.495 22.774 132.335 L 22.644 132.815 C 21.414 137.315 19.544 144.125 21.914 149.655 C 24.454 155.595 31.164 180.755 31.164 188.365 C 31.164 195.815 41.084 226.175 45.324 231.685 C 49.614 237.255 73.094 264.055 75.874 266.835 C 76.974 267.935 81.094 269.245 94.504 269.245 C 95.564 269.245 96.474 269.235 97.174 269.235 C 97.604 269.235 97.954 269.225 98.204 269.225 C 99.714 269.225 103.884 268.655 108.304 268.045 C 112.344 267.485 116.514 266.915 119.114 266.715 C 124.174 266.325 141.594 246.705 148.154 239.315 L 149.004 238.355 C 155.954 230.535 168.154 209.675 167.754 195.915 C 167.414 184.345 173.194 161.515 175.964 150.545 C 176.634 147.905 177.154 145.815 177.394 144.705 C 177.894 142.365 176.724 139.235 175.494 135.925 C 173.684 131.085 171.644 125.605 173.644 120.345 C 176.194 113.655 174.314 106.255 172.124 97.695 C 171.494 95.215 170.844 92.645 170.274 89.995 C 167.904 78.925 161.714 64.335 153.224 56.705 C 137.304 42.365 107.094 31.655 90.734 31.655 M 94.504 270.085 C 83.514 270.085 77.044 269.185 75.284 267.425 C 72.494 264.635 48.964 237.775 44.664 232.195 C 40.374 226.625 30.334 195.905 30.334 188.365 C 30.334 180.835 23.674 155.875 21.154 149.985 C 18.664 144.185 20.574 137.205 21.844 132.595 L 21.974 132.115 C 22.444 130.405 22.304 126.775 22.144 122.565 C 21.884 115.625 21.564 106.995 23.654 101.495 C 24.704 98.755 24.784 93.765 24.884 87.985 C 25.094 75.175 25.364 59.225 35.554 52.695 C 39.114 50.415 42.124 48.135 45.034 45.945 C 55.294 38.195 64.154 31.505 89.814 30.845 C 106.064 30.435 137.424 41.365 153.784 56.095 C 159.544 61.275 167.534 73.225 171.094 89.835 C 171.664 92.475 172.314 95.035 172.944 97.505 C 175.164 106.205 177.074 113.715 174.434 120.655 C 172.544 125.625 174.534 130.945 176.284 135.645 C 177.564 139.075 178.774 142.315 178.224 144.895 C 177.984 146.025 177.454 148.115 176.784 150.765 C 174.014 161.705 168.264 184.455 168.594 195.905 C 169.024 210.565 156.244 231.495 149.634 238.935 L 148.784 239.895 C 136.814 253.375 123.944 267.205 119.184 267.565 C 116.604 267.765 112.444 268.335 108.424 268.895 C 103.974 269.505 99.774 270.085 98.204 270.085 C 97.954 270.085 97.614 270.085 97.184 270.095 C 96.484 270.075 95.564 270.085 94.504 270.085"></path></symbol></defs></svg>